<svg xmlns="http://www.w3.org/2000/svg" width="960" height="472" viewBox="0 0 960 472" class="chapter-svg cg-ch20" data-layout="desktop" role="img" aria-labelledby="ch20-title ch20-desc">
  <title id="ch20-title">编译能过，代码就没问题了吗？</title>
  <desc id="ch20-desc">本章概览。编译能过，代码就没问题了吗？ 本章的主要部分：编译器：只查语法和类型；long 换成 int 之后右移成了空操作，它照样通过；静态分析（Tricorder）：跑得快、误报少、结果让工程师愿意看；在代码审查时给出意见，附带修复建议；人工审查：只处理需要判断和取舍的部分；机器能抓的问题不该耗审查者的时间。一句话：编译只查语法和类型；静态分析在审查时自动抓出更多问题</desc>
  <style>
    .cg-ch20[data-layout="desktop"] text {font-family:-apple-system,BlinkMacSystemFont,'Segoe UI','PingFang SC','Microsoft YaHei',sans-serif;fill:var(--diagram-ink,#242424)}
    .cg-ch20[data-layout="desktop"] .headline {font-size:30px;font-weight:600}
    .cg-ch20[data-layout="desktop"] .headline-m {font-size:23px;font-weight:600}
    .cg-ch20[data-layout="desktop"] .story-headline {font-size:26px;font-weight:600}
    .cg-ch20[data-layout="desktop"] .story-headline-m {font-size:21px;font-weight:600}
    .cg-ch20[data-layout="desktop"] .h22 {font-size:22px;font-weight:600}
    .cg-ch20[data-layout="desktop"] .h20 {font-size:20px;font-weight:600}
    .cg-ch20[data-layout="desktop"] .h19 {font-size:19px;font-weight:600}
    .cg-ch20[data-layout="desktop"] .h18 {font-size:18px;font-weight:600}
    .cg-ch20[data-layout="desktop"] .h16 {font-size:16px;font-weight:600}
    .cg-ch20[data-layout="desktop"] .t15 {font-size:15px}
    .cg-ch20[data-layout="desktop"] .t14 {font-size:14px}
    .cg-ch20[data-layout="desktop"] .c15 {font-size:15px;fill:var(--diagram-muted,#686868)}
    .cg-ch20[data-layout="desktop"] .c14 {font-size:14px;fill:var(--diagram-muted,#686868)}
    .cg-ch20[data-layout="desktop"] .c13 {font-size:13px;fill:var(--diagram-muted,#686868)}
    .cg-ch20[data-layout="desktop"] .tag {font-size:13px;font-weight:600;fill:var(--diagram-primary,#0b6f5d)}
    .cg-ch20[data-layout="desktop"] .act {font-size:12px;font-weight:600;letter-spacing:1px}
    .cg-ch20[data-layout="desktop"] .answer {font-size:21px;font-weight:600}
    .cg-ch20[data-layout="desktop"] .answer-m {font-size:17px;font-weight:600}
    .cg-ch20[data-layout="desktop"] .emph {font-size:20px;font-weight:600}
    .cg-ch20[data-layout="desktop"] .emph-m {font-size:18px;font-weight:600}
  </style>
  <rect x="0" y="0" width="960" height="472" fill="var(--diagram-bg,#fff)"/>
  <defs><marker id="ch20-arrow" viewBox="0 0 10 10" refX="9" refY="5" markerWidth="9" markerHeight="9" orient="auto" markerUnits="userSpaceOnUse"><path d="M1 1L9 5L1 9Z" fill="var(--diagram-line,#aebbad)"/></marker></defs>
  <text x="32.0" y="52.0" class="headline" text-anchor="start">编译能过，代码就没问题了吗？</text>
  <text x="32.0" y="94.0" class="c15" text-anchor="start">三层把关，越往上越依赖人的判断</text>
  <rect x="32.0" y="114.0" width="896.0" height="64.0" rx="10" fill="var(--diagram-secondary-soft,#dce4ed)"/>
  <g transform="translate(50.0,132.0) scale(1.167)" fill="none" stroke="var(--diagram-secondary,#2c6096)" stroke-width="2" stroke-linecap="round" stroke-linejoin="round"><path d="M16 21v-2a4 4 0 0 0-4-4H6a4 4 0 0 0-4 4v2"/><circle cx="9" cy="7" r="4"/><path d="M22 21v-2a4 4 0 0 0-3-3.87"/><path d="M16 3.13a4 4 0 0 1 0 7.75"/></g>
  <text x="92.0" y="142.0" class="h18" text-anchor="start">人工审查</text>
  <text x="92.0" y="164.0" class="c15" text-anchor="start">只处理需要判断和取舍的部分；机器能抓的问题不该耗审查者的时间</text>
  <rect x="32.0" y="186.0" width="896.0" height="64.0" rx="10" fill="var(--diagram-secondary-soft,#dce4ed)"/>
  <g transform="translate(50.0,204.0) scale(1.167)" fill="none" stroke="var(--diagram-secondary,#2c6096)" stroke-width="2" stroke-linecap="round" stroke-linejoin="round"><path d="M3 7V5a2 2 0 0 1 2-2h2"/><path d="M17 3h2a2 2 0 0 1 2 2v2"/><path d="M21 17v2a2 2 0 0 1-2 2h-2"/><path d="M7 21H5a2 2 0 0 1-2-2v-2"/><circle cx="12" cy="12" r="3"/><path d="m16 16-1.9-1.9"/></g>
  <text x="92.0" y="214.0" class="h18" text-anchor="start">静态分析（Tricorder）</text>
  <text x="92.0" y="236.0" class="c15" text-anchor="start">跑得快、误报少、结果让工程师愿意看；在代码审查时给出意见，附带修复建议</text>
  <rect x="32.0" y="258.0" width="896.0" height="64.0" rx="10" fill="var(--diagram-secondary-soft,#dce4ed)"/>
  <g transform="translate(50.0,276.0) scale(1.167)" fill="none" stroke="var(--diagram-secondary,#2c6096)" stroke-width="2" stroke-linecap="round" stroke-linejoin="round"><rect x="14" y="14" width="4" height="6" rx="2"/><rect x="6" y="4" width="4" height="6" rx="2"/><path d="M6 20h4"/><path d="M14 10h4"/><path d="M6 14h2v6"/><path d="M14 4h2v6"/></g>
  <text x="92.0" y="286.0" class="h18" text-anchor="start">编译器</text>
  <text x="92.0" y="308.0" class="c15" text-anchor="start">只查语法和类型；long 换成 int 之后右移成了空操作，它照样通过</text>
  <text x="32.0" y="348.0" class="c14" text-anchor="start">关键经验：关注开发者的感受；把分析融入核心工作流；让领域专家贡献自己的检查</text>
  <rect x="32.0" y="376.0" width="896.0" height="68.0" rx="10" fill="var(--diagram-primary-soft,#d6e5dc)"/>
  <text x="50.0" y="397.0" class="tag" text-anchor="start">一句话</text>
  <text x="50.0" y="427.0" class="answer" text-anchor="start">编译只查语法和类型；静态分析在审查时自动抓出更多问题</text>
</svg>
